<svg xmlns="http://www.w3.org/2000/svg" viewBox="0 0 64 64"><title>icon</title><path d="M6,4H47a2,2,0,0,1,2,2v4a0,0,0,0,1,0,0H4a0,0,0,0,1,0,0V6A2,2,0,0,1,6,4Z" fill="#4e4b51"/><path d="M49,10.5H4a.5.5,0,0,1-.5-.5V6A2.5,2.5,0,0,1,6,3.5H47A2.5,2.5,0,0,1,49.5,6v4A.5.5,0,0,1,49,10.5ZM4.5,9.5h44V6A1.5,1.5,0,0,0,47,4.5H6A1.5,1.5,0,0,0,4.5,6Z" fill="#212a41"/><path d="M9,4H50a2,2,0,0,1,2,2v4a0,0,0,0,1,0,0H7a0,0,0,0,1,0,0V6A2,2,0,0,1,9,4Z" fill="#6c696f"/><path d="M52,10.5H7a.5.5,0,0,1-.5-.5V6A2.5,2.5,0,0,1,9,3.5H50A2.5,2.5,0,0,1,52.5,6v4A.5.5,0,0,1,52,10.5ZM7.5,9.5h44V6A1.5,1.5,0,0,0,50,4.5H9A1.5,1.5,0,0,0,7.5,6Z" fill="#212a41"/><path d="M7.5,6.5h36a2,2,0,0,1,2,2v41a2,2,0,0,1-2,2H7.5a0,0,0,0,1,0,0V6.5A0,0,0,0,1,7.5,6.5Z" transform="translate(55.5 2.5) rotate(90)" fill="#c2c2c2"/><path d="M47,48.5H6A2.5,2.5,0,0,1,3.5,46V10A.5.5,0,0,1,4,9.5H49a.5.5,0,0,1,.5.5V46A2.5,2.5,0,0,1,47,48.5ZM4.5,10.5V46A1.5,1.5,0,0,0,6,47.5H47A1.5,1.5,0,0,0,48.5,46V10.5Z" fill="#212a41"/><path d="M10.5,6.5h36a2,2,0,0,1,2,2v41a2,2,0,0,1-2,2h-36a0,0,0,0,1,0,0V6.5A0,0,0,0,1,10.5,6.5Z" transform="translate(58.5 -0.5) rotate(90)" fill="#e0e0e0"/><path d="M50,48.5H9A2.5,2.5,0,0,1,6.5,46V10A.5.5,0,0,1,7,9.5H52a.5.5,0,0,1,.5.5V46A2.5,2.5,0,0,1,50,48.5ZM7.5,10.5V46A1.5,1.5,0,0,0,9,47.5H50A1.5,1.5,0,0,0,51.5,46V10.5Z" fill="#212a41"/><path d="M50,46.5a.5.5,0,0,1-.5-.5V12a.5.5,0,0,1,1,0V46A.5.5,0,0,1,50,46.5Z" fill="#c2c2c2"/><path d="M9,46.5a.5.5,0,0,1-.5-.5V12a.5.5,0,0,1,1,0V46A.5.5,0,0,1,9,46.5Z" fill="#fefefe"/><path d="M31.475,29l6.232-6.233a1,1,0,0,0,0-1.414L37,20.648a1,1,0,0,0-1.414,0l-6.232,6.233-6.233-6.233a1,1,0,0,0-1.414,0L21,21.355a1,1,0,0,0,0,1.414L27.233,29,21,35.234a1,1,0,0,0,0,1.414l.707.707a1,1,0,0,0,1.414,0l6.233-6.232,6.232,6.232a1,1,0,0,0,1.414,0l.707-.707a1,1,0,0,0,0-1.414Z" fill="#f9ac2f"/><path d="M36.293,38.147a1.5,1.5,0,0,1-1.061-.438L29.354,31.83l-5.879,5.879a1.5,1.5,0,0,1-2.121,0L20.646,37a1.5,1.5,0,0,1,0-2.121L26.525,29l-5.879-5.879a1.5,1.5,0,0,1,0-2.121l.708-.707a1.5,1.5,0,0,1,2.121,0l5.879,5.879L35.232,20.3a1.5,1.5,0,0,1,2.122,0l.707.707a1.5,1.5,0,0,1,0,2.121L32.182,29l5.879,5.879a1.5,1.5,0,0,1,0,2.121l-.707.707A1.5,1.5,0,0,1,36.293,38.147Zm-6.939-7.524a.5.5,0,0,1,.353.147L35.939,37a.5.5,0,0,0,.707,0l.708-.707a.5.5,0,0,0,0-.707l-6.233-6.233a.5.5,0,0,1,0-.707l6.233-6.232a.5.5,0,0,0,0-.707L36.646,21a.5.5,0,0,0-.707,0l-6.232,6.232a.5.5,0,0,1-.707,0L22.768,21a.5.5,0,0,0-.707,0l-.707.707a.5.5,0,0,0,0,.707l6.232,6.232a.5.5,0,0,1,0,.707l-6.232,6.233a.5.5,0,0,0,0,.707l.707.707a.5.5,0,0,0,.707,0L29,30.77A.5.5,0,0,1,29.354,30.623Z" fill="#212a41"/><path d="M18,39.5H16a.5.5,0,0,1-.5-.5V19a.5.5,0,0,1,.5-.5h2a.5.5,0,0,1,0,1H16.5v19H18a.5.5,0,0,1,0,1Z" fill="#212a41"/><path d="M43,39.5H41a.5.5,0,0,1,0-1h1.5v-19H41a.5.5,0,0,1,0-1h2a.5.5,0,0,1,.5.5V39A.5.5,0,0,1,43,39.5Z" fill="#212a41"/><rect x="39" y="42" width="18" height="18" rx="2" ry="2" fill="#a0b570"/><path d="M55,60.5H41A2.5,2.5,0,0,1,38.5,58V44A2.5,2.5,0,0,1,41,41.5H55A2.5,2.5,0,0,1,57.5,44V58A2.5,2.5,0,0,1,55,60.5Zm-14-18A1.5,1.5,0,0,0,39.5,44V58A1.5,1.5,0,0,0,41,59.5H55A1.5,1.5,0,0,0,56.5,58V44A1.5,1.5,0,0,0,55,42.5Z" fill="#212a41"/><rect x="42" y="42" width="18" height="18" rx="2" ry="2" fill="#bed38e"/><path d="M58,60.5H44A2.5,2.5,0,0,1,41.5,58V44A2.5,2.5,0,0,1,44,41.5H58A2.5,2.5,0,0,1,60.5,44V58A2.5,2.5,0,0,1,58,60.5Zm-14-18A1.5,1.5,0,0,0,42.5,44V58A1.5,1.5,0,0,0,44,59.5H58A1.5,1.5,0,0,0,59.5,58V44A1.5,1.5,0,0,0,58,42.5Z" fill="#212a41"/><path d="M44,58.5a.5.5,0,0,1-.5-.5V44a.5.5,0,0,1,1,0V58A.5.5,0,0,1,44,58.5Z" fill="#dcf1ac"/><path d="M58,58.5a.5.5,0,0,1-.5-.5V44a.5.5,0,0,1,1,0V58A.5.5,0,0,1,58,58.5Z" fill="#a0b570"/><path d="M57.01,47.075a1.5,1.5,0,0,0-2.121,0l-5.3,5.3L47.111,49.9a1.5,1.5,0,0,0-2.121,2.121l3.535,3.536a1.5,1.5,0,0,0,2.121,0L57.01,49.2A1.5,1.5,0,0,0,57.01,47.075Z" fill="#e0e0e0"/><path d="M49.586,56.5a1.993,1.993,0,0,1-1.414-.585l-3.536-3.535a2,2,0,0,1,0-2.828,2.047,2.047,0,0,1,2.829,0l2.121,2.121,4.949-4.95a2,2,0,1,1,2.829,2.828L51,55.914A1.993,1.993,0,0,1,49.586,56.5Zm-3.535-6.534a1,1,0,0,0-.708,1.707l3.536,3.535a1.025,1.025,0,0,0,1.414,0l6.364-6.364a1,1,0,1,0-1.415-1.414l-5.3,5.3a.514.514,0,0,1-.707,0l-2.474-2.474A1,1,0,0,0,46.051,49.965Z" fill="#212a41"/></svg>