<svg id="Capa_1" enable-background="new 0 0 509.142 509.142" height="512" viewBox="0 0 509.142 509.142" width="512" xmlns="http://www.w3.org/2000/svg"><path id="XMLID_204_" d="m74.071 301.301v139.274c0 15.1 10.211 36.404 58.854 52.148 32.711 10.587 75.912 16.418 121.646 16.418s88.935-5.831 121.646-16.418c48.644-15.745 58.854-37.049 58.854-52.148v-139.274z" fill="#afb4c8"/><path id="XMLID_1031_" d="m254.571 301.301v207.841c45.733 0 88.935-5.831 121.646-16.418 48.644-15.745 58.854-37.049 58.854-52.148v-139.275z" fill="#7e8596"/><path id="XMLID_196_" d="m74.071 177.418v139.274c0 15.1 10.211 36.404 58.854 52.148 32.711 10.587 75.912 16.418 121.646 16.418s88.935-5.831 121.646-16.418c48.644-15.745 58.854-37.049 58.854-52.148v-139.274z" fill="#cdd2e1"/><path id="XMLID_1000_" d="m254.571 177.418v207.841c45.733 0 88.935-5.831 121.646-16.418 48.644-15.745 58.854-37.049 58.854-52.148v-139.275z" fill="#afb4c8"/><path id="XMLID_131_" d="m74.071 68.566v124.274c0 15.1 10.211 36.404 58.854 52.148 32.711 10.587 75.912 16.418 121.646 16.418s88.935-5.831 121.646-16.418c48.644-15.745 58.854-37.049 58.854-52.148v-124.274z" fill="#afb4c8"/><path id="XMLID_987_" d="m254.571 68.566v192.841c45.733 0 88.935-5.831 121.646-16.418 48.644-15.745 58.854-37.049 58.854-52.148v-124.275z" fill="#7e8596"/><path id="XMLID_181_" d="m376.216 16.418c-32.711-10.587-75.912-16.418-121.645-16.418s-88.935 5.831-121.646 16.418c-48.643 15.745-58.854 37.049-58.854 52.148s10.211 36.404 58.854 52.148c32.711 10.587 75.912 16.418 121.646 16.418s88.935-5.831 121.646-16.418c48.644-15.745 58.854-37.049 58.854-52.148s-10.211-36.403-58.855-52.148z" fill="#7e8596"/><path id="XMLID_177_" d="m354.476 187.38h-.336c-8.284 0-15-6.716-15-15s6.716-15 15-15h.336c8.284 0 15 6.716 15 15s-6.716 15-15 15z" fill="#555a66"/><path id="XMLID_173_" d="m354.476 311.505h-.336c-8.284 0-15-6.716-15-15s6.716-15 15-15h.336c8.284 0 15 6.716 15 15s-6.716 15-15 15z" fill="#7e8596"/><g fill="#555a66"><path id="XMLID_132_" d="m354.476 435.63h-.336c-8.284 0-15-6.716-15-15s6.716-15 15-15h.336c8.284 0 15 6.716 15 15s-6.716 15-15 15z"/><path id="XMLID_989_" d="m376.216 16.418c-32.711-10.587-75.912-16.418-121.645-16.418v137.133c45.733 0 88.935-5.831 121.646-16.418 48.644-15.745 58.854-37.049 58.854-52.148s-10.211-36.404-58.855-52.149z"/></g></svg>