<?xml version="1.0" encoding="iso-8859-1"?>
<!-- Generator: Adobe Illustrator 19.0.0, SVG Export Plug-In . SVG Version: 6.00 Build 0)  -->
<svg version="1.1" id="Capa_1" xmlns="http://www.w3.org/2000/svg" xmlns:xlink="http://www.w3.org/1999/xlink" x="0px" y="0px"
	 viewBox="0 0 512.001 512.001" style="enable-background:new 0 0 512.001 512.001;" xml:space="preserve">
<path style="fill:#7B848F;" d="M504.485,119.734V87.672l-27.303-5.461c-1.303-4.178-2.989-8.185-4.992-11.999l15.458-23.188
	l-22.671-22.671L441.789,39.81c-3.814-2.004-7.821-3.689-11.999-4.992l-5.461-27.303h-32.063l-5.461,27.303
	c-4.178,1.303-8.185,2.989-11.999,4.992l-23.188-15.458l-22.671,22.671l15.458,23.188c-2.004,3.814-3.689,7.821-4.992,11.999
	l-27.303,5.461v32.063l27.303,5.461c1.303,4.178,2.988,8.185,4.992,11.999l-15.458,23.188l22.671,22.671l23.188-15.458
	c3.814,2.004,7.821,3.689,11.999,4.992l5.461,27.303h32.063l5.461-27.303c4.178-1.303,8.185-2.989,11.999-4.992l23.188,15.458
	l22.671-22.671l-15.458-23.188c2.004-3.814,3.689-7.821,4.992-11.999L504.485,119.734z M408.297,135.766
	c-17.708,0-32.063-14.355-32.063-32.063S390.59,71.64,408.297,71.64s32.063,14.355,32.063,32.063S426.005,135.766,408.297,135.766z"
	/>
<path style="fill:#C6CACF;" d="M504.485,424.329v-32.063l-27.303-5.461c-1.303-4.178-2.989-8.185-4.992-11.999l15.458-23.188
	l-22.671-22.671l-23.188,15.458c-3.814-2.004-7.821-3.689-11.999-4.992l-5.461-27.303h-32.063l-5.461,27.303
	c-4.178,1.303-8.185,2.988-11.999,4.992l-23.188-15.458l-22.671,22.671l15.458,23.188c-2.004,3.814-3.689,7.821-4.992,11.999
	l-27.303,5.461v32.063l27.303,5.461c1.303,4.178,2.988,8.185,4.992,11.999l-15.458,23.188l22.671,22.671l23.188-15.458
	c3.814,2.004,7.821,3.689,11.999,4.992l5.461,27.303h32.063l5.461-27.303c4.178-1.303,8.185-2.988,11.999-4.992l23.188,15.458
	l22.671-22.671l-15.458-23.188c2.004-3.814,3.689-7.821,4.992-11.999L504.485,424.329z M408.297,440.361
	c-17.708,0-32.063-14.355-32.063-32.063s14.355-32.063,32.063-32.063s32.063,14.355,32.063,32.063S426.005,440.361,408.297,440.361z
	"/>
<path style="fill:#68727E;" d="M408.297,55.609c-26.562,0-48.094,21.532-48.094,48.094s21.532,48.094,48.094,48.094
	s48.094-21.532,48.094-48.094S434.859,55.609,408.297,55.609z M408.297,135.766c-17.708,0-32.063-14.355-32.063-32.063
	S390.59,71.64,408.297,71.64s32.063,14.355,32.063,32.063S426.005,135.766,408.297,135.766z"/>
<path style="fill:#B3B9BF;" d="M408.297,360.204c-26.562,0-48.094,21.532-48.094,48.094s21.532,48.094,48.094,48.094
	s48.094-21.532,48.094-48.094S434.859,360.204,408.297,360.204z M408.297,440.361c-17.708,0-32.063-14.355-32.063-32.063
	s14.355-32.063,32.063-32.063s32.063,14.355,32.063,32.063S426.005,440.361,408.297,440.361z"/>
<path style="fill:#FF8C78;" d="M328.141,277.042v-48.094l-45.376-11.344c-2.235-7.266-5.144-14.237-8.647-20.845l24.072-40.119
	l-34.007-34.007l-40.119,24.072c-6.608-3.503-13.578-6.412-20.845-8.647l-11.344-45.376h-48.094l-11.344,45.376
	c-7.267,2.234-14.237,5.144-20.845,8.647l-40.119-24.072l-34.007,34.007l24.072,40.119c-3.503,6.608-6.412,13.578-8.647,20.845
	L7.515,228.948v48.094l45.376,11.344c2.235,7.266,5.144,14.237,8.647,20.845L37.465,349.35l34.007,34.007l40.119-24.072
	c6.608,3.503,13.578,6.412,20.845,8.647l11.344,45.376h48.094l11.344-45.376c7.267-2.234,14.237-5.144,20.845-8.647l40.119,24.072
	l34.007-34.007l-24.072-40.119c3.503-6.607,6.411-13.578,8.647-20.845L328.141,277.042z"/>
<circle style="fill:#DB6B5E;" cx="167.828" cy="252.995" r="104.204"/>
<circle style="fill:#D9DCDF;" cx="167.828" cy="252.995" r="88.172"/>
<circle style="fill:#ECEDEF;" cx="167.828" cy="252.995" r="72.141"/>
<path d="M408.297,64.126c-21.823,0-39.577,17.755-39.577,39.577s17.755,39.577,39.577,39.577s39.577-17.755,39.577-39.577
	S430.12,64.126,408.297,64.126z M408.297,128.251c-13.535,0-24.548-11.013-24.548-24.548s11.013-24.548,24.548-24.548
	s24.548,11.013,24.548,24.548S421.833,128.251,408.297,128.251z"/>
<path d="M505.959,80.303l-23.081-4.616c-0.622-1.647-1.303-3.282-2.041-4.9l13.064-19.595c1.987-2.981,1.594-6.95-0.939-9.482
	L470.29,19.04c-2.533-2.533-6.502-2.927-9.482-0.939l-19.595,13.064c-1.617-0.737-3.253-1.419-4.901-2.041l-4.616-23.081
	C430.995,2.528,427.911,0,424.329,0h-32.063c-3.582,0-6.666,2.528-7.368,6.041l-4.616,23.081c-1.647,0.622-3.282,1.303-4.9,2.041
	L355.787,18.1c-2.979-1.986-6.95-1.594-9.482,0.939L323.634,41.71c-2.533,2.533-2.926,6.502-0.939,9.482l13.064,19.595
	c-0.737,1.617-1.419,3.252-2.041,4.9l-23.081,4.616c-3.514,0.703-6.042,3.787-6.042,7.369v32.063c0,3.582,2.528,6.666,6.041,7.368
	l23.081,4.616c0.622,1.647,1.303,3.282,2.041,4.901l-13.064,19.595c-1.987,2.981-1.594,6.95,0.939,9.482l22.671,22.671
	c2.533,2.533,6.502,2.926,9.482,0.939l19.595-13.064c1.617,0.737,3.252,1.419,4.9,2.041l4.616,23.081
	c0.702,3.513,3.786,6.041,7.368,6.041h32.063c3.582,0,6.666-2.528,7.368-6.041l4.616-23.081c1.647-0.622,3.282-1.303,4.901-2.041
	l19.595,13.064c2.981,1.988,6.951,1.595,9.482-0.939l22.673-22.671c2.533-2.533,2.926-6.502,0.939-9.482l-13.064-19.595
	c0.737-1.618,1.419-3.253,2.041-4.901l23.081-4.616c3.513-0.702,6.041-3.786,6.041-7.368V87.672
	C512,84.09,509.472,81.006,505.959,80.303z M496.971,113.574l-21.263,4.252c-2.696,0.539-4.883,2.508-5.7,5.133
	c-1.134,3.64-2.638,7.254-4.47,10.741c-1.28,2.436-1.126,5.374,0.4,7.663l12.042,18.062l-13.959,13.959l-18.062-12.042
	c-2.288-1.525-5.228-1.678-7.663-0.4c-3.487,1.832-7.101,3.336-10.741,4.47c-2.625,0.818-4.594,3.005-5.133,5.7l-4.252,21.263
	h-19.742l-4.252-21.263c-0.539-2.696-2.508-4.883-5.133-5.7c-3.64-1.134-7.254-2.639-10.741-4.47
	c-2.437-1.281-5.375-1.126-7.663,0.4l-18.062,12.042l-13.959-13.959l12.042-18.062c1.526-2.288,1.679-5.228,0.4-7.663
	c-1.832-3.487-3.336-7.101-4.47-10.741c-0.818-2.625-3.005-4.594-5.7-5.133l-21.264-4.252V93.832l21.263-4.252
	c2.696-0.539,4.883-2.508,5.7-5.133c1.134-3.64,2.639-7.254,4.47-10.741c1.279-2.435,1.126-5.374-0.4-7.663L338.615,47.98
	l13.959-13.959l18.062,12.042c2.288,1.526,5.228,1.678,7.663,0.4c3.487-1.832,7.1-3.336,10.741-4.47
	c2.625-0.818,4.593-3.005,5.133-5.7l4.252-21.263h19.742l4.252,21.263c0.539,2.696,2.508,4.883,5.133,5.7
	c3.64,1.134,7.254,2.638,10.741,4.47c2.435,1.279,5.375,1.125,7.663-0.4l18.062-12.042l13.959,13.959l-12.042,18.062
	c-1.526,2.288-1.679,5.227-0.4,7.663c1.832,3.487,3.336,7.1,4.47,10.741c0.818,2.625,3.005,4.593,5.7,5.133l21.264,4.252V113.574z"
	/>
<path d="M505.959,384.898l-23.081-4.616c-0.622-1.647-1.303-3.282-2.041-4.9l13.064-19.595c1.987-2.981,1.594-6.95-0.939-9.482
	l-22.671-22.671c-2.533-2.533-6.502-2.927-9.482-0.939l-19.595,13.064c-1.617-0.737-3.253-1.419-4.901-2.041l-4.616-23.081
	c-0.702-3.513-3.786-6.041-7.368-6.041h-32.063c-3.582,0-6.666,2.528-7.368,6.041l-4.616,23.081c-1.647,0.622-3.282,1.303-4.9,2.041
	l-19.595-13.064c-2.979-1.987-6.95-1.594-9.482,0.939l-22.671,22.671c-2.533,2.533-2.926,6.502-0.939,9.482l13.064,19.595
	c-0.737,1.617-1.419,3.252-2.041,4.9l-23.081,4.616c-3.513,0.702-6.041,3.786-6.041,7.368v32.063c0,3.582,2.528,6.666,6.041,7.368
	l23.081,4.616c0.622,1.647,1.303,3.282,2.041,4.901l-13.064,19.595c-1.987,2.981-1.594,6.95,0.939,9.482l22.671,22.671
	c2.533,2.533,6.502,2.926,9.482,0.939l19.595-13.064c1.617,0.737,3.252,1.419,4.9,2.041l4.616,23.081
	c0.702,3.513,3.786,6.041,7.368,6.041h32.063c3.582,0,6.666-2.528,7.368-6.041l4.616-23.081c1.647-0.622,3.282-1.303,4.901-2.041
	l19.595,13.064c2.981,1.987,6.951,1.595,9.482-0.939l22.672-22.671c2.533-2.533,2.926-6.502,0.939-9.482l-13.064-19.595
	c0.737-1.618,1.419-3.253,2.041-4.901l23.081-4.616c3.513-0.702,6.041-3.786,6.041-7.368v-32.063
	C512,388.685,509.472,385.601,505.959,384.898z M496.971,418.169l-21.263,4.252c-2.696,0.539-4.883,2.508-5.7,5.133
	c-1.134,3.64-2.638,7.254-4.47,10.741c-1.28,2.436-1.126,5.375,0.4,7.663l12.042,18.062L464.02,477.98l-18.062-12.042
	c-2.288-1.525-5.228-1.679-7.663-0.4c-3.487,1.832-7.101,3.336-10.741,4.47c-2.625,0.818-4.594,3.005-5.133,5.7l-4.252,21.263
	h-19.742l-4.252-21.263c-0.539-2.696-2.508-4.883-5.133-5.7c-3.64-1.134-7.254-2.639-10.741-4.47
	c-2.437-1.281-5.375-1.126-7.663,0.4l-18.062,12.042l-13.959-13.959l12.042-18.062c1.526-2.288,1.679-5.228,0.4-7.663
	c-1.832-3.487-3.336-7.101-4.47-10.741c-0.818-2.625-3.005-4.594-5.7-5.133l-21.264-4.252v-19.742l21.263-4.252
	c2.696-0.539,4.883-2.508,5.7-5.133c1.134-3.64,2.639-7.254,4.47-10.741c1.279-2.435,1.126-5.375-0.4-7.663l-12.042-18.062
	l13.959-13.959l18.062,12.042c2.288,1.526,5.228,1.679,7.663,0.4c3.487-1.832,7.1-3.336,10.741-4.47
	c2.625-0.818,4.593-3.005,5.133-5.7l4.252-21.264h19.742l4.252,21.263c0.539,2.696,2.508,4.883,5.133,5.7
	c3.64,1.134,7.254,2.638,10.741,4.47c2.435,1.279,5.375,1.125,7.663-0.4l18.062-12.042l13.959,13.959l-12.042,18.062
	c-1.526,2.288-1.679,5.227-0.4,7.663c1.832,3.487,3.336,7.1,4.47,10.741c0.818,2.625,3.005,4.593,5.7,5.133l21.264,4.252V418.169z"
	/>
<path d="M408.297,368.721c-21.823,0-39.577,17.755-39.577,39.577s17.755,39.577,39.577,39.577s39.577-17.755,39.577-39.577
	S430.12,368.721,408.297,368.721z M408.297,432.846c-13.535,0-24.548-11.013-24.548-24.548s11.013-24.548,24.548-24.548
	s24.548,11.013,24.548,24.548S421.833,432.846,408.297,432.846z"/>
<path d="M304.634,345.483l-21.932-36.553c2.26-4.634,4.24-9.405,5.917-14.261l41.345-10.336c3.346-0.836,5.692-3.842,5.692-7.29
	v-48.094c0-3.448-2.347-6.454-5.692-7.29l-41.345-10.336c-1.676-4.854-3.656-9.627-5.917-14.261l21.932-36.553
	c1.774-2.957,1.309-6.742-1.13-9.18l-34.007-34.007c-2.439-2.438-6.222-2.905-9.18-1.13l-36.553,21.932
	c-4.634-2.26-9.406-4.24-14.261-5.917l-10.336-41.345c-0.838-3.348-3.844-5.694-7.291-5.694h-48.094
	c-3.448,0-6.454,2.347-7.29,5.692l-10.336,41.345c-4.854,1.676-9.627,3.656-14.261,5.917L75.34,116.188
	c-2.957-1.774-6.742-1.309-9.18,1.13l-34.008,34.007c-2.439,2.439-2.904,6.223-1.13,9.18l21.932,36.553
	c-2.26,4.634-4.24,9.406-5.917,14.261L5.692,221.657C2.347,222.494,0,225.5,0,228.948v48.094c0,3.448,2.347,6.454,5.692,7.29
	l41.345,10.336c1.676,4.855,3.656,9.627,5.917,14.261l-21.932,36.553c-1.774,2.957-1.309,6.742,1.13,9.18l34.007,34.007
	c2.438,2.439,6.222,2.905,9.18,1.13l36.553-21.933c4.633,2.259,9.405,4.239,14.261,5.917l10.336,41.345
	c0.836,3.346,3.841,5.692,7.29,5.692h48.094c3.448,0,6.454-2.347,7.29-5.692l10.336-41.345c4.855-1.677,9.629-3.657,14.261-5.917
	l36.553,21.933c2.957,1.774,6.742,1.309,9.18-1.13l34.007-34.007C305.942,352.224,306.407,348.44,304.634,345.483z M263.018,373.895
	l-35.089-21.053c-2.258-1.356-5.06-1.429-7.387-0.195c-6.244,3.311-12.817,6.037-19.533,8.103c-2.516,0.773-4.444,2.806-5.081,5.36
	l-9.92,39.684h-36.359l-9.921-39.684c-0.638-2.553-2.566-4.587-5.081-5.36c-6.716-2.066-13.288-4.792-19.533-8.103
	c-2.326-1.232-5.128-1.159-7.387,0.195l-35.089,21.053l-25.71-25.71l21.053-35.089c1.355-2.257,1.429-5.06,0.195-7.386
	c-3.312-6.247-6.039-12.819-8.104-19.533c-0.774-2.516-2.806-4.444-5.36-5.081l-39.682-9.921v-36.359l39.684-9.921
	c2.553-0.638,4.587-2.566,5.36-5.081c2.065-6.713,4.791-13.285,8.104-19.534c1.233-2.326,1.159-5.128-0.195-7.386l-21.053-35.089
	l25.71-25.71l35.089,21.053c2.258,1.356,5.061,1.429,7.386,0.195c6.248-3.312,12.82-6.039,19.534-8.104
	c2.516-0.774,4.444-2.806,5.081-5.36l9.919-39.682h36.359l9.921,39.684c0.638,2.553,2.566,4.587,5.081,5.36
	c6.713,2.065,13.285,4.791,19.534,8.104c2.326,1.233,5.128,1.16,7.386-0.195l35.089-21.053l25.71,25.71l-21.053,35.089
	c-1.355,2.257-1.429,5.06-0.195,7.386c3.312,6.248,6.039,12.82,8.104,19.534c0.774,2.516,2.806,4.444,5.36,5.081l39.682,9.919
	v36.359l-39.684,9.921c-2.553,0.638-4.587,2.566-5.36,5.081c-2.065,6.714-4.791,13.286-8.104,19.533
	c-1.233,2.327-1.159,5.129,0.195,7.386l21.053,35.089L263.018,373.895z"/>
<path d="M231.449,191.49c-3.216,2.623-3.697,7.356-1.075,10.573c10.093,12.377,16.257,27.568,17.748,43.418h-16.169
	c-4.15,0-7.515,3.365-7.515,7.515s3.365,7.515,7.515,7.515h16.17c-3.574,38.487-34.294,69.206-72.78,72.78v-16.17
	c0-4.15-3.365-7.515-7.515-7.515s-7.515,3.365-7.515,7.515v16.17c-38.487-3.574-69.206-34.294-72.78-72.78h16.17
	c4.15,0,7.515-3.365,7.515-7.515s-3.365-7.515-7.515-7.515h-16.17c3.574-38.487,34.294-69.206,72.78-72.78v16.17
	c0,4.15,3.365,7.515,7.515,7.515s7.515-3.365,7.515-7.515v-16.179c8.092,0.743,15.961,2.683,23.476,5.813
	c3.832,1.595,8.23-0.216,9.826-4.048c1.596-3.831-0.216-8.23-4.048-9.826c-11.663-4.859-24.034-7.322-36.769-7.322
	c-52.762,0-95.687,42.925-95.687,95.687s42.925,95.687,95.687,95.687s95.687-42.925,95.687-95.687
	c0-21.971-7.633-43.433-21.493-60.43C239.399,189.347,234.665,188.866,231.449,191.49z"/>
<path d="M178.546,231.65l-11.275,11.275l-34.826-27.861c-3.241-2.593-7.97-2.067-10.563,1.173c-2.593,3.24-2.067,7.97,1.173,10.563
	l40.078,32.063c2.953,2.363,7.336,2.118,10.008-0.554l16.031-16.031c2.935-2.935,2.935-7.693,0-10.627
	C186.239,228.715,181.479,228.715,178.546,231.65z"/>
<g>
</g>
<g>
</g>
<g>
</g>
<g>
</g>
<g>
</g>
<g>
</g>
<g>
</g>
<g>
</g>
<g>
</g>
<g>
</g>
<g>
</g>
<g>
</g>
<g>
</g>
<g>
</g>
<g>
</g>
</svg>
